<?xml version="1.0" encoding="utf-8"?>
<!-- Generator: Adobe Illustrator 19.0.0, SVG Export Plug-In . SVG Version: 6.00 Build 0)  -->
<svg class="nzt-svg" version="1.1" id="Layer_1" xmlns="http://www.w3.org/2000/svg" xmlns:xlink="http://www.w3.org/1999/xlink" x="0px" y="0px"
	 viewBox="-1993 -91 2167.3 2087" style="enable-background:new -1993 -91 2167.3 2087;" xml:space="preserve">
<g>
	<path d="M-1795.3,1469.5c16.3-0.1,32.7-0.2,49-0.2c40.2,0,80.3,0,120.5,0c1.9,0,3.9,0,6.1,0c0,14.8,0,29.1,0,43.8
		c-21.1,0-42,0-63.6,0c0,2.3,0,4.1,0,5.8c-0.1,53.8,0,107.6-0.3,161.4c-0.1,12.7,3,23.4,14.8,30c0.4,0.2,0.7,0.7,1,1.1
		c0.2,0.3,0.2,0.6,0.3,0.9c-0.2,0.3-0.3,0.8-0.5,0.8c-12-0.2-24,0-35.9-0.8c-8.5-0.6-14.6-5.9-18.5-13.5c-5.6-11-6.9-22.9-6.9-34.9
		c-0.2-48.1-0.2-96.3-0.2-144.4c0-1.8,0-3.6,0-6.2c-8,0-15.6,0.3-23.1-0.1c-5.4-0.3-10.9-1.1-16.1-2.7c-13.2-4-21.2-13.2-24.6-26.5
		c-0.6-2.2-1.3-4.4-1.9-6.6C-1795.3,1474.9-1795.3,1472.2-1795.3,1469.5z"/>
	<path d="M-1497.3,1883.5c-8.4-31.5-16.7-62.9-25-94.4c-1.5-5.8-4.6-10.2-10.6-12.8c7.8-0.2,15.5-2,22.9,1.2
		c5.5,2.4,8.3,6.9,9.7,12.5c3.9,16,7.9,31.9,11.8,47.9c0.2,0.9,0.5,1.8,1.2,4.2c1.2-3.9,2.1-6.4,2.9-9c5.1-17.7,10.3-35.4,15.3-53.2
		c0.9-3.3,2.3-4.4,5.8-4.4c11.5,0.2,11.5,0,14.7,11.1c5.2,18,10.4,36,16.7,54.1c1.8-7.3,3.7-14.5,5.5-21.8
		c3.3-13.2,6.7-26.4,9.8-39.7c0.7-2.8,1.8-3.8,4.7-3.7c6,0.2,11.9,0.1,18.5,0.1c-9.8,36.4-19.4,72.1-29,107.8c-6,0-12,0-18,0
		c-6.3-21.2-12.7-42.3-19-63.5c-0.3,0-0.7,0.1-1,0.1c-6.3,21.1-12.7,42.3-19,63.4C-1485.3,1883.5-1491.3,1883.5-1497.3,1883.5z"/>
	<path d="M-1730.3,1883.5c0.2-2,0.5-3.9,0.5-5.9c0-31.8,0-63.7,0-95.5c0-2,0-3.9,0-6.4c6.1,0,11.8-0.3,17.4,0.2
		c1.5,0.1,3.1,2.2,4.1,3.8c12.3,18.8,24.5,37.7,36.7,56.5c0.7,1.1,1.5,2.2,3,4.5c0-22.4,0-43.3,0-64.7c7.3,0,14.1,0,21.3,0
		c0,36,0,71.7,0,107.5c-6.3,0-12.7,0-19,0c-13.7-21.2-27.4-42.5-41.1-63.7c-0.3,0.2-0.6,0.3-0.9,0.5c0,21.1,0,42.2,0,63.3
		C-1715.7,1883.5-1723,1883.5-1730.3,1883.5z"/>
	<path d="M-837.3,1883.5c0-35.1-0.1-70.2-0.1-105.4c0-0.6,0.2-1.3,0.4-2.5c5.5,0,11-0.3,16.4,0.2c1.5,0.1,3.2,2,4.2,3.4
		c12.1,18.5,24.1,37.1,36.1,55.7c1,1.5,2,3,3.6,5.3c0.2-2,0.4-3.2,0.4-4.4c0-15.1-0.1-30.3,0.1-45.4c0-5.6-0.7-10.6-6.2-13.8
		c0.1-0.4,0.3-0.8,0.4-1.2c5.5,0.3,11.2-0.3,16.4,1.1c3.1,0.9,6.2,4.4,7.9,7.4c1.7,3,2.3,7,2.3,10.6c0.2,29.6,0.1,59.3,0.1,88.9
		c-6.3,0-12.7,0-19,0c-13.7-21.4-27.3-42.7-41-64.1c-0.3,0.1-0.7,0.2-1,0.4c0,21.3,0,42.5,0,63.8
		C-823.3,1883.5-830.3,1883.5-837.3,1883.5z"/>
	<path d="M-729.3,1883.5c0.2-2,0.5-3.9,0.5-5.9c0-32,0-63.9,0-95.9c0-1.8,0-3.6,0-6c2.1,0,3.7,0,5.3,0c11.2,0,22.3,0,33.5,0
		c23.3,0,37.6,12.4,39.2,35.5c0.9,13.4,0.5,27-0.6,40.4c-1.4,16.9-11.5,27.2-28.3,31.1c-0.6,0.1-1.1,0.6-1.7,0.9
		C-697.3,1883.5-713.3,1883.5-729.3,1883.5z M-707.6,1864.7c5.9,0,11.5,0.2,17.1,0c10.3-0.3,17.3-6.2,17.9-16.5
		c0.7-12.4,0.6-24.9,0-37.3c-0.4-8.9-6.3-14.9-15.2-15.9c-6.5-0.7-13.2-0.1-19.9-0.1C-707.6,1818.1-707.6,1841.2-707.6,1864.7z"/>
	<path d="M-1605.3,1883.5c-10.1-2.9-14.7-10.1-14.8-20c-0.2-29-0.1-58-0.1-87.4c23.3,0,46.7,0,70.3,0c0,6,0,11.9,0,18.3
		c-16.4,0-32.6,0-49.2,0c0,8.5,0,16.6,0,25.1c13.8,0,27.6,0,41.7,0c0,6.5,0,12.6,0,19.1c-13.8,0-27.6,0-41.7,0
		c0,6.4-0.5,12.3,0.1,18.2c0.6,5.5,4,7.8,9.8,7.9c11.2,0.1,22.3,0,33.5,0c1.8,0,3.6,0,6.2,0c0,6.6,0,12.7,0,18.8
		C-1568,1883.5-1586.7,1883.5-1605.3,1883.5z"/>
	<path d="M-1243.3,1883.5c0-28.7,0-57.3,0.3-86c0-4.4,1.2-9,3-13c2.7-6,8.3-8.8,14.6-8.8c17.5-0.3,35-0.1,52.8-0.1
		c0,6.2,0,12.3,0,18.9c-12,0-24,0-35.9,0c-10.8,0-13.7,2.9-13.7,13.5c0,4,0,7.9,0,12.3c14.1,0,27.9,0,42.1,0c0,6.4,0,12.5,0,19
		c-14,0-27.8,0-41.8,0c0,8.5,0,16.6,0,25.1c16.4,0,32.7,0,49.7,0c0,6.6,0,12.9,0,19.1C-1196,1883.5-1219.7,1883.5-1243.3,1883.5z"/>
	<path d="M-950.3,1883.5c12.2-33.5,24.5-67,36.8-100.5c1-2.6,2.4-6.6,4.2-7c5.3-0.9,11.1-1.3,15.2,3.6c1.4,1.6,2.6,3.5,3.3,5.5
		c11.8,32.3,23.6,64.6,35.4,96.9c0.2,0.4,0,1,0.1,1.5c-7.3,0-14.7,0-22,0c-1.7-5.2-3.1-10.5-5.1-15.6c-0.5-1.4-2.6-3.1-4-3.1
		c-10.6-0.3-21.3-0.2-32-0.1c-1.2,0-3.2,0.8-3.6,1.7c-2,5.6-3.6,11.3-5.4,17C-935,1883.5-942.7,1883.5-950.3,1883.5z M-915.3,1846.2
		c9,0,17.3,0,26,0c-4.2-12.6-8.3-24.7-12.8-38C-906.7,1821.6-911,1833.8-915.3,1846.2z"/>
	<path d="M-1154.3,1883.5c12.2-33.4,24.4-66.9,36.7-100.3c1-2.7,2.7-6.8,4.6-7.2c5.3-1.1,11.1-1.1,15.1,3.9c1.2,1.5,2.3,3.3,3,5.2
		c11.9,32.3,23.7,64.6,35.5,97c0.2,0.4,0.1,1,0.1,1.5c-7.3,0-14.7,0-22,0c-1.7-5.2-3.2-10.5-5.2-15.6c-0.5-1.4-2.6-3.1-4-3.1
		c-10.6-0.3-21.3-0.2-31.9-0.1c-1.2,0-3.2,0.8-3.5,1.8c-2,5.6-3.6,11.3-5.3,17C-1139,1883.5-1146.7,1883.5-1154.3,1883.5z
		 M-1105.6,1809.8c-0.4,0-0.8,0.1-1.2,0.1c-4.2,12.1-8.4,24.2-12.6,36.4c8.9,0,17.3,0,26,0
		C-1097.5,1833.8-1101.6,1821.8-1105.6,1809.8z"/>
	<path d="M-23.3,109.5c-2.9,8.4-4.8,17.4-8.8,25.2c-16,31.1-49.5,47.1-83.6,40.6c-32.6-6.1-58-33.3-62.4-66.9
		c-5.3-40.3,23.3-78.9,63.5-85.9c1.1-0.2,2.2-0.7,3.2-1c6.7,0,13.3,0,20,0c0.8,0.3,1.5,0.7,2.3,0.8c25.7,4.3,44.9,18,56.9,41
		c4.2,8.1,5.9,17.5,8.8,26.2C-23.3,96.2-23.3,102.9-23.3,109.5z M-32.6,98.9c-0.2-37.6-31.3-68.5-68.7-68.2
		c-37.5,0.2-68.1,31.3-67.9,69c0.2,36.8,31,67.5,68.1,67.7C-63.9,167.6-32.4,136.1-32.6,98.9z"/>
	<path d="M-1341.3,1883.5c-1.9-12.9,3.5-23.2,10.6-33.5c11.1-16.2,21.2-33,31.7-49.6c1.1-1.7,2.1-3.3,3.6-5.8c-14.9,0-29.1,0-43.5,0
		c0-6.5,0-12.4,0-18.6c22.9,0,45.4,0,68.5,0c0,8.3,1.2,16-4.1,23.8c-13.1,19.4-25.4,39.4-37.9,59.2c-1,1.5-1.9,3.1-3.4,5.4
		c15.4,0,30.2,0,45.4,0c0,6.8,0,12.9,0,19C-1294,1883.5-1317.7,1883.5-1341.3,1883.5z"/>
	<path d="M-1039.3,1883.5c0.2-2,0.5-3.9,0.5-5.9c0-28.1,0-56.2,0-84.4c0-6.5-0.1-12.8-7.4-16.3c0.3-0.5,0.5-1.1,0.8-1.6
		c6.3,0.5,12.8,0.2,18.7,1.9c2.9,0.8,5.8,5,6.9,8.3c1.5,4.4,1.9,9.4,1.9,14.2c0.2,19.6,0.1,39.3,0.1,58.9c0,1.8,0,3.6,0,6
		c17.3,0,34.2,0,51.5,0c0,6.7,0,12.8,0,18.9C-990.7,1883.5-1015,1883.5-1039.3,1883.5z"/>
	<path d="M-1634.1,981.4c-7.8,6.4-15.7,12.9-24,19.8c-4.5-12-8.5-23.4-13-34.6c-17.4-43.4-30.2-88.2-36.7-134.5
		c-3.8-27-5.6-54.3-6.5-81.6c-2.1-60,5.1-119,21.9-176.7c4-13.7,8.7-27.3,13.3-40.8c0.7-2,2.4-4.1,4.2-5.2
		c93.4-56.8,193.2-98,299.9-122.4c53-12.1,106.5-20.8,160.7-25c39.5-3.1,79-5.4,118.6-7c37.4-1.5,74.9-1.5,112.4-2.6
		c44.8-1.3,89.5-2.2,134.2-4.6c69.2-3.8,137.4-13.4,203.7-34.7c65.2-21,124.5-53,177.7-96.1c57.7-46.7,105.2-102.7,146.9-163.8
		c6.3-9.2,12.3-18.6,18.4-27.9c0.7-1.1,1.5-2.1,2.9-4.1c3.4,13.8,6.8,26.6,9.6,39.6c5.3,23.9,9.6,48,8.9,72.7
		c-0.2,8.1-1,16.3-2.8,24.2c-6.1,27.2-24.6,40-52.3,37.2c-8.6-0.9-8.6-0.9-12.2,7c-1.1,2.4-2.2,4.8-3,6.6c10.6,0,21.3-0.6,32,0.2
		c10.6,0.7,21.1,2.9,29.1,10.9c-10,25.6-48.6,33-74.5,14.2c-5.5,8.6-11,17.2-17,26.6c28-8,53.1-5.2,75.2,13.9
		c-17.4,20.6-51.5,34.7-88.9,6.8c-5,5.8-10,11.7-16,18.7c32.6-0.7,58.9,10.1,79.2,34.2c-24.6,27.7-90.5,26.8-105.7-0.1
		c-8.6,8-17.4,16.2-27.3,25.4c20.1-4.6,36.9-0.2,52.3,10.5c15.1,10.5,25.9,24.8,34.6,40.7c-32.8,20.6-79.7,25.7-116.9-24.2
		c-12,9.7-24.1,19.4-36.7,29.5c45.1,1.6,81.8,16.6,102.3,60.9c-8.7,1.8-16.7,3.7-24.8,5c-22.8,3.6-45.5,3.6-67.6-4.2
		c-18.8-6.6-34.4-17.4-43.7-35.7c-0.1-0.3-0.5-0.4-1-0.7c-12.4,8.8-24.8,17.7-37.2,26.6c48.8,8,88.8,27.9,107.6,77.7
		c-47.6,16.1-115.2-9.6-147.4-52.6c-10.5,6.2-21,12.4-32.6,19.3c54.1,15.3,90,48.9,108.3,101.8c-18.7,3.5-37,5.2-55.5,4.3
		c-29-1.4-56.2-8.6-79.6-26.7c-13-10-23.1-22.5-31.4-36.5c-1.5-2.5-3.1-5.1-4.7-7.8c-15,7.6-29.5,15.1-45.1,23
		c65.4,14,108,52.8,133.1,113.4c-4.6,0.5-8.4,1-12.2,1.3c-36.8,2.9-72.5-1.3-105.8-18.5c-30.2-15.5-53.8-37.8-69.1-69.3
		c-13.1,6.9-26.4,13.9-40.7,21.4c5.1,1.2,9.3,2.2,13.4,3.2c27.1,6.8,49.1,21.6,67.1,42.7c23.8,28,38.3,60.9,50.2,95.7
		c-12.8,0.9-24.9-0.7-36.9-3.3c-42.3-9.2-78.7-30-112.1-56.8c-13.6-10.8-26.3-22.6-36.6-36.7c-3-4.1-5.1-8.8-8.1-14
		c-13.5,6.5-27.7,13.4-41.6,20.1c10.1,3.5,20.4,6.3,30.1,10.6c30.5,13.7,54.3,35.8,74.1,62.3c19.4,25.9,33.1,54.5,40.2,87.6
		c-9.2,0.6-18.1,1.8-27,1.6c-30.6-0.9-58.1-11.8-84.2-26.9c-29.9-17.2-56.2-38.6-77.3-66.1c-10.2-13.3-14.5-22.8-17.5-38.3
		c-13.4,6.7-26.7,13.3-39.5,19.7c10.1,4.8,20.5,8.8,30.1,14.4c29.4,17.1,51.7,41.7,71.1,69.2c21.3,30.3,37.4,63.3,50.9,97.6
		c0.2,0.5,0.2,1,0.4,2.1c-9.4,1.9-18.7,1.7-28.1,0.6c-30.2-3.5-57.3-15.6-82.9-31.2c-38.5-23.5-72.2-52.4-99.2-88.7
		c-3.1-4.1-5.9-8.5-8.5-12.9c-2.5-4.3-4.6-8.8-7-13.6c-12.4,7.2-24.8,14.2-36.6,21.1c40.5,16.9,69,48.6,97.3,80.3
		c20.6,23,38.6,48,52.3,75.8c7.2,14.7,13.2,29.8,13.5,46.6c0,1.1-0.1,2.3-0.2,3.6c-20.8,1-41-1.4-60.9-6.7
		c-49.5-13.2-91.8-39.3-129.8-73c-19.8-17.5-38-36.5-51.3-59.5c-3.3-5.8-5.3-12.4-8.3-19.4c-14.4,9.2-29.6,18.8-45.1,28.6
		c26.6,7.8,48.3,23.2,69.2,39.6c46.5,36.4,86,79,115.6,130.4c11.4,19.8,20.5,40.7,26.5,64c-7.3,1.6-14.2,3.6-21.4,4.7
		c-34,5.4-66.2-1.5-97.5-14.5c-41-17.1-76.3-42.7-108.1-73.3c-19.3-18.5-36.7-38.6-50.5-61.7c-8.5-14.3-11.5-23.2-12.4-37.8
		c-23.1,17.5-45.6,34.7-68.4,51.9c9.2,3.5,18.1,6.3,26.6,10.3c39.3,18.2,74.2,43.1,107.1,71c46.1,39.1,85.6,83.8,115.3,136.8
		c10.3,18.5,18.9,37.7,26,58.6c-10.8,0.7-21,1.5-31.2,1.9c-37.1,1.6-73.9-1-110-10c-83.1-20.9-144.7-69.3-184.2-145.2
		c-8.7-16.7-14.8-34.8-22.1-52.3c-0.7-1.7-1.3-3.4-2.2-5.8c-8.8,8.1-17.4,15.7-25.7,23.6c-60.1,57.9-105.7,126-142.1,200.7
		c-19.9,40.9-36,83.3-50.8,126.2c-1,3-2.3,5.9-3.5,8.8c-0.1,0.3-0.5,0.4-1,0.8c-7.1-8.4-7.2-18.7-7.2-28.8c0-13.1,0.6-26.3,0.6-39.4
		c-0.1-25.7-0.7-51.3-0.5-77c0.1-16.3,1.1-32.6,1.9-48.9c0.8-14.7,7.4-27.3,16.1-38.5c6.8-8.8,14.7-16.7,22.2-25
		c13.1-14.4,26.2-28.9,39.4-43.1c46-49.5,96.3-94.5,149.7-135.9c86.2-66.9,178.9-123.3,275-174.5c89.4-47.7,181.3-90.4,273.4-132.6
		c85.7-39.3,171.7-78,255.7-121.1c71.6-36.7,141.5-76.3,206.4-124.3c46.9-34.7,90.2-73.3,127.3-118.5c23.3-28.4,43.5-58.9,60-91.8
		c1.1-2.2,1.6-5.7,0.7-7.9c-2.8-7-5.8-14.2-10-20.4c-3.7-5.4-10.6-10-16.7-7.7c-5.4,2-7,9.7-7.5,16c-1,13.6,5.1,24.4,13.3,34.5
		c1.1,1.4,2.4,2.7,3.7,4.3c-5.5,8.4-10.9,16.7-16.1,24.7c-4.2-7.2-7.6-14.7-12.5-21c-3.6-4.7-8.8-8.6-14.1-11.5c-6-3.3-8-2-10.4,4.5
		c-3.8,10.6-2.8,21.3-0.2,32c2.5,10.1,5.8,19.8,14.6,26.9c-6.4,7.9-12.6,15.6-19.9,24.6c-2-23.7-14.6-38.2-34.3-48
		c-10.2,9.8-14.8,21.9-13.5,35.9c1.5,15.9,7.1,29.7,23.8,37.7c-10.4,9.6-20.6,19.1-31.4,29.1c-1.5-7.1-2.6-13.3-4.3-19.3
		c-3.8-13.7-9.3-26.7-22.8-33.8c-12.3-6.5-11.1-6.1-16.2,5.2c-7.3,15.9-10.1,32.7-6.2,50.1c2.4,10.7,7.7,19.1,19.5,23.3
		c-14.4,10.7-28.4,21.1-43.1,32c1.9-15.3,1.1-29.5-2.2-43.4c-1.6-6.6-4.1-13-6.7-19.2c-1.4-3.3-3.7-6.4-6-9.1
		c-8.3-9.9-12.6-9.9-20.6-0.1c-20.1,24.8-24.1,52.7-15,82.7c1.6,5.5,5,10.4,7.8,16.2c-10.8,6.3-22.1,12.8-33.7,19.4
		c1.1-35.3,3.1-70.5-24-99.9c-3.3,3.5-6.5,6.1-8.9,9.3c-9.8,12.9-13.6,28-16.1,43.6c-3.2,20.5-3.8,41.1,0.3,61.6
		c0.7,3.4,1.8,6.7,2.8,10.7c-9.9,5.3-20.1,10.7-30.7,16.4c7.6-33.8,2.6-65.3-11.2-95.6c-5.7-12.5-11.9-19.2-20.8-24.5
		c-1.7,2.5-3.6,4.9-5.2,7.5c-13.5,22.3-20.4,46.8-24.8,72.2c-2.8,16.1-4.5,32.4-2,48.7c0.9,6.2,3.1,12.1,4.9,18.9
		c-11.6,5.3-24,11-37.2,17c1.7-7.9,3.3-15.1,4.7-22.4c4.7-24.9,6.8-49.8,2.6-75c-3.1-18.8-9-36.5-22.3-50.9
		c-1.1-1.2-2.4-2.3-3.7-3.6c-8.6,7.2-15.1,15.7-20.7,25c-11.9,19.7-18.3,41.3-21.6,63.9c-3.9,26.5-4.2,53.1,1.4,79.5
		c0.6,2.9,1.4,5.8,2.3,9.2c-11,4.5-21.8,8.8-32.7,13.2c2-13.5,4.5-26.8,5.9-40.1c3.6-34.4,4.6-68.8-5.5-102.5
		c-4.6-15.4-12-29.2-25.7-38.7c-0.8-0.6-1.7-1-2.7-1.7c-14.4,14.3-24.5,31.1-31.6,49.8c-11.2,29.4-14.6,60-14,91.2
		c0.5,23.2,3,46.1,9.8,68.6c-13,5.6-25.8,11.2-39.4,17.1c1.8-12.9,3.6-24.9,5.1-36.9c4.7-37.6,7.8-75.2,3.5-113
		c-2.6-22.3-7.3-44.1-21.7-62.3c-2.6-3.3-5.9-6.2-9-9.5c-12.6,11.3-21.5,24.5-28.5,38.9c-18.4,38.1-24.6,78.5-22.2,120.4
		c1.7,29.2,8.3,57.2,20,85c-18.1,7.7-36,15.4-54.7,23.4c0.5-2.1,0.7-3.5,1.1-4.8c12.2-37,18-75.1,17.7-114
		c-0.3-36.3-6.3-71.6-22.6-104.5c-6.8-13.9-15.2-26.8-25.8-38.6c-9.6,8.1-16.6,17.7-22.5,28.2c-14.8,25.9-23,54.1-28.7,83.1
		c-7.5,38.2-11,76.8-7.9,115.8c1,12.7,3.3,25.4,6,37.9c2.2,10.1,5.9,19.8,14.9,26.7c-21.8,10.8-43.1,21.4-64,31.8
		c3.6-13.5,7.9-26.8,10.5-40.4c7.4-38.1,9.3-76.7,8.4-115.4c-0.7-31.9-3.6-63.5-12-94.4c-4.7-17.4-10.9-34.3-23.3-48
		c-10.5-11.6-12.4-11.5-23.5-0.6c-32.6,32-50.5,71.4-58.2,115.8c-8.4,47.8-4.9,95.2,4.6,142.4c5.2,26,12.2,51.4,22.4,76.3
		c-24.2,12.5-48.4,25-72.8,37.6c1.4-8.4,3-17.1,4.4-25.9c7.8-47.9,12.3-96.1,10-144.7c-1.7-34.9-6.8-69.2-19.5-102
		c-8.6-22.3-20.1-42.8-38.1-59c-3.6-3.2-7.6-5.9-12.5-9.6c-8.2,9.1-16.8,17.5-24.1,26.8c-22.6,28.9-35.4,62.3-43.2,97.8
		c-10,45.6-11.2,91.8-7.4,138.1c3,36.3,8.7,72,19.4,106.9c3.3,10.8,6.7,21.7,14.3,30.8c-21.3,14.5-42.5,29-64.1,43.7
		c8.5-35,8.3-70.1,7.4-105.2c-1.5-56.9-7-113.3-23.7-168.1c-5.8-19.2-13.3-37.7-25.3-54c-9.6-13-21.2-23-37.9-25.4
		c-3.2-0.5-5.1,0.2-7.1,2.8c-23.5,31-37.6,66.1-45.6,103.8c-9.3,43.4-10.1,87.2-6.1,131.2c5.1,56.1,16.9,110.8,37.2,163.5
		C-1640.6,967.4-1637.3,974.1-1634.1,981.4z"/>
	<path d="M-338.4,1591.8c-0.8,1.6-1.6,3.1-2.3,4.7c-12.1,26.5-24.2,53-36.1,79.5c-1.5,3.3-3.1,4.8-6.9,4.6c-9.3-0.3-18.7-0.3-28,0
		c-3.5,0.1-5.2-0.9-6.7-4.2c-11.8-26.6-23.8-53.1-35.8-79.6c-0.6-1.4-1.4-2.8-3-4c0,40,0,80,0,120.3c-15.5,0-30.4,0-46.2,0
		c0-1.8,0-3.7,0-5.6c0-66.3-0.1-132.7,0.1-199c0-16.6-6.8-28.4-21.9-35.4c-1-0.5-2-1.1-3-1.7c-0.2-0.1-0.2-0.6-0.5-1.3
		c1.1-0.2,2.1-0.5,3.1-0.5c13.5,0,27-0.2,40.5,0c17.1,0.3,29.4,7.8,36.3,24c15.7,36.5,31.7,72.9,47.6,109.3c1,2.2,2,4.4,3.4,7.5
		c2.8-6.3,5.4-11.9,7.8-17.5c17.4-39.6,34.8-79.2,52.1-118.8c1.5-3.5,3.3-4.6,7-4.5c12.6,0.2,25.3,0.1,38.8,0.1c0,2.4,0,4.5,0,6.5
		c0,68.5,0.1,137-0.1,205.5c0,12.2,3,22.4,14.2,28.8c0.6,0.3,1.1,0.8,1.4,1.3c0.2,0.4,0.2,0.9,0.4,2.7c-13.4-0.8-26.5-0.8-39.3-2.5
		c-9.1-1.3-14.2-8.6-17.4-17c-4.1-10.8-5-22.1-5.1-33.4c-0.1-21.7,0.1-43.3,0.3-65c0-1.4,0-2.9,0-4.3
		C-337.8,1592-338.1,1591.9-338.4,1591.8z"/>
	<path d="M-1049.3,1713.1c-15.8,0-30.7,0-46.1,0c0-81,0-162,0-243.5c1.6-0.1,3.2-0.2,4.8-0.2c32.5,0,65-0.5,97.5,0.1
		c30.5,0.6,53.6,14.8,65.5,43.2c11.8,28.2,7.8,55-13.5,77.8c-6.1,6.6-14.2,11.4-21.9,17.4c17.3,34.2,35.1,69.3,53.2,104.9
		c-1.8,0.2-3,0.5-4.2,0.5c-15.8,0-31.7,0-47.5,0.1c-2.6,0-4.2-0.5-5.5-3.1c-18.3-38.6-36.8-77.1-55.1-115.8
		c-4.3-9.2-7.9-18.8-6.4-29.3c0.7-5.2,2.6-9.8,7-13.9c0.2,11.9,6.5,18.3,16.7,21.6c10.6,3.4,19.3,0,26.8-7.4
		c11.9-11.8,13.9-28.1,5.2-40.4c-4.7-6.6-11.3-11-19.2-11.3c-18.9-0.6-37.9-0.2-57.3-0.2C-1049.3,1580-1049.3,1646.2-1049.3,1713.1z
		"/>
	<path d="M-1405,1594.9c0,13.2,0.8,26.4-0.2,39.5c-2.4,32-19.1,55.5-47,70.2c-59.3,31.4-127.4-7.8-130.2-74.8
		c-1.1-26.1-1-52.3,0-78.4c1.7-45.5,37.8-81.3,83.3-84c45.1-2.6,82.9,25.7,92,69.7c2.1,10.1,1.7,20.8,2.1,31.3
		c0.3,8.8,0.1,17.7,0.1,26.5C-1404.9,1594.9-1404.9,1594.9-1405,1594.9z M-1451.2,1589.3c0.2,0,0.5,0,0.7,0c0-9.7,0.1-19.3-0.1-29
		c-0.1-5.1,0-10.4-1.3-15.4c-5-20.1-24.3-33-46.4-31.4c-20.2,1.4-37.3,17-38.2,37.6c-1.1,26.3-1.2,52.6-0.2,78.9
		c0.8,22.3,19.4,39.1,41.3,39.6c22.5,0.5,41.6-15,43.8-37.4C-1450.1,1618.1-1451.2,1603.6-1451.2,1589.3z"/>
	<path d="M-571.9,1493.1c-9.4,14.4-17.9,27.7-26.4,40.8c-7.5-4.3-14.5-8.9-21.9-12.6c-16.5-8.1-33.9-10.9-51.9-6.6
		c-16.1,3.9-24,17.8-19.1,32.2c3.9,11.4,12.6,16.5,24.2,17.6c12.6,1.2,25.2,2.1,37.7,4c31,4.8,52.8,21.4,61.8,52.1
		c8.9,30,0,70.9-42.1,86.6c-33.5,12.4-67.3,12.1-99.8-4c-13-6.4-23.6-15.8-27.2-30.8c-3.4-14.4,2.1-26.4,11.4-37.1
		c0.4-0.4,1.1-0.5,2-1c0.8,3.2,1.3,6.3,2.3,9.2c3.4,9.2,10.3,15.6,18.9,19.7c24.2,11.6,49.2,12.2,74.1,2.5
		c14-5.4,20.2-18.2,16.7-31.3c-2.6-9.8-8.9-16.2-18.7-17.9c-9.6-1.7-19.5-2.4-29.3-3.1c-18.6-1.2-36.2-5.1-51.3-16.9
		c-22-17.2-31-40.1-27.4-67.4c3.7-27.6,19.9-46.1,45.6-55.7c29.7-11.1,59.3-8,88.2,3.5C-593.2,1481.4-583,1487.5-571.9,1493.1z"/>
	<path d="M-1360,1469.7c11.9,0,22.7-0.5,33.5,0.1c12.3,0.7,20.2,7.6,24.3,19.1c4.2,11.8,4.9,24.1,4.9,36.4c0.1,34,0,68,0.1,102
		c0.1,21.2,16.9,39.6,38.1,42.1c21.9,2.5,41.1-10.4,46.3-31.6c1.1-4.6,1.5-9.6,1.5-14.3c0.1-49.2,0.1-98.3,0.1-147.5
		c0-2,0-3.9,0-6.3c15.4,0,30.4,0,45.8,0c0.1,1.7,0.2,3.3,0.2,4.9c0,51,0,102,0,153c0,45.6-37.2,84.6-83.3,87.7
		c-45.5,3-87.3-30.4-93.8-75.2c-0.7-4.8-1.1-9.6-1.1-14.4c0-40.5-0.1-81,0.2-121.5c0.1-13.3-2.2-24.9-14.9-32
		C-1358.7,1472-1359,1471.1-1360,1469.7z"/>
	<path d="M-803.8,1713.2c-16.5,0-31.9,0-48.3,0c0-2,0-3.9,0-5.8c0-68.7-0.1-137.3,0.1-206c0-12.7-3.3-22.9-14.9-29.4
		c-0.5-0.3-0.8-1-1.2-1.4c0.3-0.4,0.5-0.9,0.6-0.9c11.6,0,23.3-0.6,34.9,0.3c11,0.8,18.5,7.6,22.8,17.8c4.3,10.3,5.6,21.2,5.6,32.3
		c0,33.2,0,66.3,0,99.5c0.1,29.2,0.2,58.3,0.3,87.5C-803.8,1708.9-803.8,1710.9-803.8,1713.2z"/>
	<path d="M-143.5,84.5c0,16.5,0,31.4,0,46.6c-3.1,0-5.8,0-9,0c0-21.3,0-42.5,0-64.4c3.7,0,7.3-0.3,10.9,0.2c1.4,0.2,2.9,1.9,3.8,3.3
		c7.5,12.4,14.8,24.9,22.1,37.3c0.4,0.7,0.9,1.3,2.2,3c0-15.2,0-29.2,0-43.5c3.2,0,5.8,0,8.9,0c0,21.3,0,42.6,0,63.9
		c-9.5,1.5-9.5,1.5-14.1-6C-126.8,111.8-134.7,98.8-143.5,84.5z"/>
	<path d="M-50.3,67.1c0.4,5.3,0.2,9.9-3.4,14.5c-9.6,12.5-18.6,25.5-28.5,39.2c11.3,0,21.9,0,32.7,0c0,3.8,0,6.9,0,10.3
		c-15.5,0-30.9,0-46.6,0c-0.9-5.1-0.6-9.6,2.7-14c9.8-13,19.1-26.4,29.2-40.5c-10.5,0-20.1,0-30,0c0-3.5,0-6.3,0-9.4
		C-79.6,67.1-65,67.1-50.3,67.1z"/>
</g>
</svg>
