
<svg version="1.1" id="Layer_1" xmlns="http://www.w3.org/2000/svg" xmlns:xlink="http://www.w3.org/1999/xlink" x="0px" y="0px"
	 viewBox="0 0 105.714 89.653" style="enable-background:new 0 0 105.714 89.653;" xml:space="preserve">
		 <style type="text/css">
	.st0{fill:none;stroke:#FFF;stroke-width:0.25;stroke-linecap:round;stroke-linejoin:bevel;stroke-miterlimit:10;}
	
	 	 <defs>

		<style>
			.st0{
			 stroke-dasharray:0;
			 stroke-dashoffset:0;
			 -webkit-animation: dash 1s linear forwards;
			 -o-animation: dash 1s linear forwards;
			 -moz-animation: dash 1s linear forwards;
			 animation: dash 1s linear forwards;
			}

			@-webkit-keyframes dash {
				from {
				stroke-dashoffset:800;
				stroke-dasharray:800;
				}
				to {
				stroke-dashoffset:0;
				}
			}
		</style>
	 </defs>
		</style>



	<path id="st0" class="st0" d="M9.935,63.697c-0.532,0.418-1.015,0.797-1.59,1.249c-1.941-3.708-3.457-7.454-4.124-11.491
		c-0.978-5.923-0.786-11.789,1.251-17.492c0.256-0.715,0.873-1.469,1.529-1.849c10.166-5.887,21.197-9.117,32.839-10.162
		c8.339-0.749,16.716-1.06,25.067-1.69c7.69-0.58,15.17-2.059,22.041-5.81c6.64-3.625,11.757-8.87,16.047-15.004
		c0.304-0.434,0.604-0.87,0.906-1.305c0.148-0.006,0.297-0.011,0.445-0.017c0.426,2.398,1.055,4.783,1.224,7.199
		c0.18,2.565-1.024,3.619-3.594,3.838c-0.412,0.035-0.802,0.324-1.063,0.75c1.379,0.145,2.758,0.289,4.283,0.449
		c-1.177,1.979-2.685,2.326-5.475,1.465c-0.26,0.404-0.538,0.837-0.948,1.476c1.935-0.164,3.679-0.352,5.157,0.833
		c-1.461,1.785-3.292,2.016-6.279,0.747c-0.278,0.26-0.591,0.553-1.193,1.117c2.345,0.148,4.268,0.457,5.706,1.978
		c-1.499,1.861-4.664,2.038-7.533,0.447c-0.462,0.464-0.918,0.92-1.516,1.519c2.79-0.249,4.604,1.046,6.022,3.137
		c-2.942,1.781-5.442,1.418-8.461-1.222c-0.701,0.556-1.421,1.127-2.438,1.934c3.119,0.216,5.751,0.839,7.363,3.715
		c-3.715,0.824-7.152,1.19-9.979-1.925c-0.749,0.523-1.477,1.031-2.434,1.698c3.277,0.63,6.197,1.493,7.795,4.821
		c-4.205,0.933-7.64-0.286-10.782-3.016c-0.613,0.348-1.26,0.715-2.238,1.27c3.724,0.945,6.435,2.746,7.9,6.098
		c-4.107,1.704-8.96,0.292-12.395-3.636c-0.908,0.432-1.854,0.882-3.159,1.502c4.483,0.888,7.742,2.938,9.689,6.821
		c-4.94,1.254-10.702-0.532-13.561-4.885c-0.407,0.205-0.833,0.414-1.253,0.634c-0.423,0.222-0.839,0.455-1.344,0.729
		c5.276,1.784,7.539,3.902,9.3,8.616c-3.099,1.12-10.476-2.189-14.112-6.369c-0.815,0.39-1.652,0.79-2.875,1.375
		c2.808,0.607,4.957,1.773,6.772,3.52c1.832,1.763,3.228,3.791,3.907,6.281c-4.673,1.408-12.917-2.758-15.113-7.66
		c-0.819,0.402-1.635,0.803-2.761,1.356c2.956,0.882,5.224,2.387,6.942,4.538c1.655,2.073,3.072,4.335,4.39,6.733
		c-7.127,0.137-12.19-3.448-16.648-8.619c-0.648,0.359-1.412,0.781-2.195,1.214c5.309,3.075,9.891,6.722,12.122,12.718
		c-5.11,1.577-15.864-3.885-18.531-9.288c-0.49,0.285-0.979,0.554-1.453,0.849c-0.486,0.302-0.957,0.629-1.593,1.05
		c3.614,1.257,6.538,3.328,9.23,5.746c2.689,2.416,4.974,5.135,6.219,8.596c-5.301,3.125-18.447-3.49-21.259-10.741
		c-1.525,1.117-3.019,2.211-4.603,3.372c10.532,3.5,18.697,12.189,20.092,17.054c-8.465,1.47-20.438-0.472-25.488-12.578
		C8.967,73.366,4.073,80.917,0.655,89.533c-0.12-0.033-0.241-0.067-0.361-0.1c-0.045-0.359-0.128-0.719-0.128-1.078
		c0.005-3.136-0.153-6.288,0.124-9.4c0.116-1.299,0.919-2.748,1.838-3.727c2.998-3.196,6.028-6.399,9.345-9.252
		c8.931-7.682,19.151-13.364,29.742-18.373c10.438-4.937,21.007-9.599,31.439-14.549c7.296-3.462,14.296-7.459,20.337-12.928
		c2.91-2.634,5.383-5.616,7.345-9.03c0.606-1.055,0.27-1.808-0.498-2.464c-0.292-0.25-0.905-0.455-1.175-0.311
		c-0.291,0.155-0.56,0.802-0.468,1.13c0.221,0.791,0.659,1.521,1.099,2.468c-0.176,0.269-0.487,0.741-0.773,1.178
		c-0.835-0.725-1.619-1.404-2.467-2.141c-0.834,1.705-0.687,2.528,0.625,4.549c-0.324,0.393-0.662,0.802-0.904,1.096
		c-0.88-0.94-1.729-1.846-2.569-2.744c-1.807,1.563-1.62,3.245,0.389,4.967c-0.626,0.556-1.239,1.099-1.75,1.552
		c-0.694-1.027-1.223-2.054-1.984-2.863c-0.66-0.702-1.319-0.494-1.682,0.513c-0.643,1.782-0.343,3.261,1.094,4.435
		c-0.87,0.632-1.71,1.243-2.55,1.853c-0.301-1.205-0.473-2.358-0.898-3.409c-0.222-0.55-0.835-1.164-1.373-1.282
		c-0.338-0.074-0.99,0.645-1.287,1.137c-1.117,1.852-0.999,3.734,0.188,5.629c-0.739,0.409-1.426,0.789-2.257,1.248
		c-0.107-2.329-0.02-4.57-2.065-6.334c-2.19,2.455-1.918,5.233-1.377,8.161c-0.579,0.312-1.185,0.639-1.878,1.013
		c0.149-2.972-0.197-5.583-2.679-7.682c-1.96,3.074-2.646,6.168-1.837,9.691c-0.721,0.329-1.479,0.675-2.392,1.092
		c0.56-3.496,1.123-6.889-1.78-9.755c-3.252,3.379-3.414,7.305-2.543,11.605c-0.635,0.27-1.302,0.553-2.029,0.862
		c0.211-4.167,1.272-8.375-2.465-11.791c-3.792,4.152-3.5,8.797-2.347,13.771c-0.74,0.314-1.539,0.652-2.502,1.06
		c0.075-4.894,1.627-9.911-2.059-14.138c-3.8,2.862-4.525,8.934-1.984,15.831c-1.155,0.484-2.316,0.971-3.648,1.53
		c1.458-6.048,1.829-11.723-2.625-16.599c-3.963,2.271-5.574,14.515-2.486,18.803c-1.358,0.667-2.702,1.327-4.299,2.111
		c1.061-3.577,1.252-7.029,0.928-10.489c-0.319-3.406-0.561-6.897-3.777-9.41c-7.056,6.885-5.293,14.548-2.432,22.448
		c-1.546,0.783-3.127,1.583-4.903,2.482c0.176-1.442,0.368-2.739,0.487-4.043c0.345-3.765,0.404-7.52-0.681-11.196
		c-0.644-2.181-1.659-4.143-3.394-5.691c-0.813-0.725-1.409-0.799-2.221,0.084c-2.347,2.55-3.442,5.596-3.915,8.955
		c-0.708,5.029,0.423,12.118,2.666,16.058c-1.354,0.888-2.716,1.782-4.238,2.781c0.531-4.572,0.205-8.924-0.722-13.218
		c-0.375-1.739-0.969-3.442-1.598-5.111c-0.325-0.862-0.819-1.735-1.456-2.391c-1.761-1.816-3.035-2.672-4.643,0.355
		C5.883,42.85,5.586,47.46,6.258,52.206C6.819,56.176,7.94,59.989,9.935,63.697z"/>
</svg>
